<svg xmlns="http://www.w3.org/2000/svg" width="23.698" height="15.805" viewBox="0 0 23.698 15.805">
  <path id="Icon_ionic-ios-arrow-round-forward" data-name="Icon ionic-ios-arrow-round-forward" d="M22.988,11.554a1.076,1.076,0,0,0-.008,1.515l5,5.013H8.937a1.07,1.07,0,0,0,0,2.14H27.976l-5,5.013a1.083,1.083,0,0,0,.008,1.515,1.066,1.066,0,0,0,1.506-.008l6.783-6.832h0a1.2,1.2,0,0,0,.222-.337,1.021,1.021,0,0,0,.082-.412,1.073,1.073,0,0,0-.3-.749l-6.783-6.832A1.049,1.049,0,0,0,22.988,11.554Z" transform="translate(-7.875 -11.252)" fill="#ffffff"/>
</svg>
