<svg xmlns="http://www.w3.org/2000/svg" width="42" height="42" viewBox="0 0 42 42">
  <g id="Group_2827" data-name="Group 2827" transform="translate(-1128 -1032)">
    <g id="Icon_ionic-ios-arrow-round-forward" data-name="Icon ionic-ios-arrow-round-forward" transform="translate(1137.086 1045.448)">
      <path id="Icon_ionic-ios-arrow-round-forward-2" data-name="Icon ionic-ios-arrow-round-forward" d="M22.988,11.554a1.076,1.076,0,0,0-.008,1.515l5,5.013H8.937a1.07,1.07,0,0,0,0,2.14H27.976l-5,5.013a1.083,1.083,0,0,0,.008,1.515,1.066,1.066,0,0,0,1.506-.008l6.783-6.832h0a1.2,1.2,0,0,0,.222-.337,1.021,1.021,0,0,0,.082-.412,1.073,1.073,0,0,0-.3-.749l-6.783-6.832A1.049,1.049,0,0,0,22.988,11.554Z" transform="translate(-7.875 -11.252)" fill="#00a7e3"/>
    </g>
    <g id="Ellipse_21" data-name="Ellipse 21" transform="translate(1128 1032)" fill="none" stroke="#00a7e3" stroke-width="2">
      <circle cx="21" cy="21" r="21" stroke="none"/>
      <circle cx="21" cy="21" r="20" fill="none"/>
    </g>
  </g>
</svg>
