<svg id="iconmonstr-instagram-14" xmlns="http://www.w3.org/2000/svg" width="40" height="40" viewBox="0 0 40 40">
  <path id="iconmonstr-instagram-14-2" data-name="iconmonstr-instagram-14" d="M24.715,10.5c-1.23-.057-1.6-.067-4.715-.067s-3.483.012-4.713.067c-3.165.145-4.638,1.643-4.783,4.783-.055,1.23-.068,1.6-.068,4.713s.013,3.483.068,4.715c.145,3.132,1.612,4.638,4.783,4.783,1.228.055,1.6.068,4.713.068s3.485-.012,4.715-.068c3.165-.143,4.637-1.647,4.783-4.783.055-1.23.067-1.6.067-4.715s-.012-3.483-.067-4.713c-.147-3.138-1.622-4.638-4.783-4.783ZM20,25.992A5.991,5.991,0,1,1,25.992,20,5.992,5.992,0,0,1,20,25.992Zm6.228-10.818a1.4,1.4,0,1,1,1.4-1.4A1.4,1.4,0,0,1,26.228,15.173ZM23.888,20A3.888,3.888,0,1,1,20,16.112,3.888,3.888,0,0,1,23.888,20ZM20,0A20,20,0,1,0,40,20,20,20,0,0,0,20,0ZM31.6,24.81C31.4,29.052,29.043,31.4,24.812,31.6c-1.245.057-1.643.07-4.812.07s-3.565-.013-4.81-.07C10.95,31.4,8.6,29.048,8.4,24.81c-.057-1.243-.07-1.642-.07-4.81s.013-3.565.07-4.81c.2-4.24,2.548-6.592,6.787-6.785,1.245-.058,1.642-.072,4.81-.072s3.567.013,4.812.072c4.242.195,6.595,2.553,6.785,6.785.057,1.245.07,1.642.07,4.81S31.653,23.567,31.6,24.81Z" fill="#00a7e3"/>
</svg>
