<svg xmlns="http://www.w3.org/2000/svg" width="16.834" height="16.842" viewBox="0 0 16.834 16.842">
  <g id="Icon_ionic-ios-close-circle-outline" data-name="Icon ionic-ios-close-circle-outline" transform="translate(-9.984 -0.41)">
    <path id="Path_247" data-name="Path 247" d="M28.7,26.325l-5.536-5.536L28.7,15.253a1.679,1.679,0,0,0-2.374-2.374l-5.536,5.536-5.536-5.536a1.679,1.679,0,1,0-2.374,2.374l5.536,5.536-5.536,5.536a1.623,1.623,0,0,0,0,2.374,1.668,1.668,0,0,0,2.374,0l5.536-5.536L26.323,28.7a1.687,1.687,0,0,0,2.374,0A1.668,1.668,0,0,0,28.7,26.325Z" transform="translate(-2.375 -11.944)" fill="#1e1e23"/>
  </g>
</svg>
