<svg xmlns="http://www.w3.org/2000/svg" width="35.349" height="10.671" viewBox="0 0 35.349 10.671">
  <path id="Icon_ionic-ios-arrow-round-forward" data-name="Icon ionic-ios-arrow-round-forward" d="M37.428,11.234a.726.726,0,0,0-.006,1.023L40.8,15.641l-32.209.222a.722.722,0,0,0,0,1.445l32.2-.222L37.417,20.47a.731.731,0,0,0,.006,1.023.72.72,0,0,0,1.017-.006l4.579-4.613h0a.811.811,0,0,0,.15-.228.689.689,0,0,0,.056-.278.724.724,0,0,0-.206-.506L38.439,11.25A.708.708,0,0,0,37.428,11.234Z" transform="translate(-7.875 -11.029)" fill="#000000"/>
</svg>
