<svg id="Group_1437" data-name="Group 1437" xmlns="http://www.w3.org/2000/svg" width="25" height="25" viewBox="0 0 25 25">
  <path id="Icon_ionic-ios-add" data-name="Icon ionic-ios-add" d="M19.281,13.78H15.15V9.65a.685.685,0,0,0-1.37,0V13.78H9.65a.685.685,0,0,0,0,1.37H13.78v4.131a.685.685,0,1,0,1.37,0V15.15h4.131a.685.685,0,1,0,0-1.37Z" transform="translate(-1.71 -2.189)" fill="#DE291B"/>
  <path id="Ellipse_13" data-name="Ellipse 13" d="M12.5,1.5A11,11,0,0,0,4.722,20.278,11,11,0,1,0,20.278,4.722,10.928,10.928,0,0,0,12.5,1.5m0-1.5A12.5,12.5,0,1,1,0,12.5,12.5,12.5,0,0,1,12.5,0Z" fill="#DE291B"/>
</svg>
